<svg width="28" height="28" viewBox="0 0 28 28" fill="none" xmlns="http://www.w3.org/2000/svg">
<path d="M26.8766 0C26.7437 0 26.6072 0.024497 26.4707 0.08049L6.29921 8.18548H0.55993C0.251969 8.18548 0 8.44444 0 8.7664V19.2301C0 19.5521 0.251969 19.811 0.55993 19.811H4.11899C3.9895 20.217 3.91951 20.6474 3.91951 21.0849C3.91951 23.3911 5.80228 25.2668 8.11899 25.2668C10.0577 25.2668 11.692 23.951 12.175 22.1732L26.4742 27.9195C26.6107 27.972 26.7472 28 26.8801 28C27.4716 28 28 27.5031 28 26.8381V1.16185C27.9965 0.496938 27.4716 0 26.8766 0ZM8.11899 22.7577C7.1916 22.7577 6.4392 22.0087 6.4392 21.0849C6.4392 20.6929 6.57568 20.3185 6.82415 20.021L9.79528 21.2143C9.72528 22.0752 9.00088 22.7577 8.11899 22.7577ZM25.4768 24.8014L7.2371 17.4733L6.78565 17.2913H2.51969V10.7052H6.78565L7.2371 10.5232L25.4768 3.1951V24.8014Z" fill="#E5BA73"/>
</svg>
