<svg width="28" height="28" viewBox="0 0 28 28" fill="none" xmlns="http://www.w3.org/2000/svg">
<path d="M1.12336 3.59687e-06C1.25634 3.57907e-06 1.39282 0.0245006 1.5293 0.0804936L21.7008 8.18548L27.4401 8.18548C27.748 8.18548 28 8.44444 28 8.7664L28 19.2301C28 19.5521 27.748 19.811 27.4401 19.811L23.881 19.811C24.0105 20.217 24.0805 20.6474 24.0805 21.0849C24.0805 23.3911 22.1977 25.2668 19.881 25.2668C17.9423 25.2668 16.308 23.951 15.825 22.1732L1.52581 27.9195C1.38932 27.972 1.25284 28 1.11986 28C0.528433 28 -2.24404e-06 27.5031 -2.28201e-06 26.8381L-3.74835e-06 1.16186C0.0034962 0.496941 0.528431 3.67648e-06 1.12336 3.59687e-06ZM19.881 22.7577C20.8084 22.7577 21.5608 22.0087 21.5608 21.0849C21.5608 20.6929 21.4243 20.3185 21.1759 20.021L18.2047 21.2143C18.2747 22.0752 18.9991 22.7577 19.881 22.7577ZM2.52318 24.8014L20.7629 17.4733L21.2143 17.2913L25.4803 17.2913L25.4803 10.7052L21.2143 10.7052L20.7629 10.5232L2.52318 3.1951L2.52318 24.8014Z" fill="#E5BA73"/>
</svg>
