<svg width="40" height="40" viewBox="0 0 40 40" fill="none" xmlns="http://www.w3.org/2000/svg">
<path d="M2 20C2 15.2261 3.89642 10.6477 7.27208 7.27208C10.6477 3.89642 15.2261 2 20 2C24.7739 2 29.3523 3.89642 32.7279 7.27208C36.1036 10.6477 38 15.2261 38 20V31.4525C38 33.3605 38 34.31 37.7165 35.0727C37.4911 35.6772 37.1383 36.226 36.6822 36.6822C36.226 37.1383 35.6772 37.4911 35.0727 37.7165C34.31 38 33.3583 38 31.4525 38H20C15.2261 38 10.6477 36.1036 7.27208 32.7279C3.89642 29.3523 2 24.7739 2 20Z" stroke="#190300" stroke-width="4"/>
<path d="M13.25 17.75H26.75M20 26.75H26.75" stroke="#190300" stroke-width="4" stroke-linecap="round" stroke-linejoin="round"/>
</svg>
