<svg width="30" height="30" viewBox="0 0 30 30" fill="none" xmlns="http://www.w3.org/2000/svg">
<path d="M15 30C23.2708 30 30 23.2708 30 15C30 6.72923 23.2708 -5.88288e-07 15 -1.31134e-06C6.72923 -2.0344e-06 2.0344e-06 6.72923 1.31134e-06 15C5.88288e-07 23.2708 6.72923 30 15 30ZM15 27.6923C7.97654 27.6923 2.30769 22.0235 2.30769 15C2.3077 7.97654 7.97654 2.30769 15 2.30769C22.0235 2.30769 27.6923 7.97654 27.6923 15C27.6923 22.0235 22.0235 27.6923 15 27.6923ZM15.6187 22.1844C15.7362 22.2992 15.9242 22.2981 16.0404 22.1819L22.3904 15.8308L23.009 15.2121C23.1262 15.095 23.1262 14.905 23.009 14.7879L22.3904 14.1692L16.0382 7.81818C15.922 7.70197 15.7339 7.70092 15.6164 7.81583L14.3862 9.01866C14.2668 9.13542 14.2657 9.32721 14.3838 9.4453L18.2725 13.334C18.4615 13.523 18.3276 13.8462 18.0604 13.8462L7.22308 13.8462C7.05739 13.8462 6.92308 13.9805 6.92308 14.1462L6.92308 15.8538C6.92308 16.0195 7.05739 16.1538 7.22308 16.1538L18.0604 16.1538C18.3276 16.1538 18.4615 16.477 18.2725 16.666L14.3839 20.5545C14.2658 20.6727 14.2669 20.8646 14.3865 20.9813L15.6187 22.1844Z" fill="#190300"/>
</svg>
