<svg width="28" height="28" viewBox="0 0 28 28" fill="none" xmlns="http://www.w3.org/2000/svg">
<path fill-rule="evenodd" clip-rule="evenodd" d="M14 3.0625C14.3481 3.0625 14.6819 3.20078 14.9281 3.44692C15.1742 3.69306 15.3125 4.0269 15.3125 4.375V12.6875H23.625C23.9731 12.6875 24.3069 12.8258 24.5531 13.0719C24.7992 13.3181 24.9375 13.6519 24.9375 14C24.9375 14.3481 24.7992 14.6819 24.5531 14.9281C24.3069 15.1742 23.9731 15.3125 23.625 15.3125H15.3125V23.625C15.3125 23.9731 15.1742 24.3069 14.9281 24.5531C14.6819 24.7992 14.3481 24.9375 14 24.9375C13.6519 24.9375 13.3181 24.7992 13.0719 24.5531C12.8258 24.3069 12.6875 23.9731 12.6875 23.625V15.3125H4.375C4.0269 15.3125 3.69306 15.1742 3.44692 14.9281C3.20078 14.6819 3.0625 14.3481 3.0625 14C3.0625 13.6519 3.20078 13.3181 3.44692 13.0719C3.69306 12.8258 4.0269 12.6875 4.375 12.6875H12.6875V4.375C12.6875 4.0269 12.8258 3.69306 13.0719 3.44692C13.3181 3.20078 13.6519 3.0625 14 3.0625Z" fill="#FFBB5C"/>
</svg>
