<svg width="28" height="28" viewBox="0 0 28 28" fill="none" xmlns="http://www.w3.org/2000/svg">
<path d="M14.0007 20.4193C16.719 20.4193 19.0173 18.7159 19.9623 16.3359H8.03898C8.97232 18.7159 11.2823 20.4193 14.0007 20.4193ZM9.91732 12.8359C10.3814 12.8359 10.8266 12.6516 11.1548 12.3234C11.4829 11.9952 11.6673 11.5501 11.6673 11.0859C11.6673 10.6218 11.4829 10.1767 11.1548 9.8485C10.8266 9.52031 10.3814 9.33594 9.91732 9.33594C9.45319 9.33594 9.00807 9.52031 8.67988 9.8485C8.35169 10.1767 8.16732 10.6218 8.16732 11.0859C8.16732 11.5501 8.35169 11.9952 8.67988 12.3234C9.00807 12.6516 9.45319 12.8359 9.91732 12.8359ZM18.084 12.8359C18.5481 12.8359 18.9932 12.6516 19.3214 12.3234C19.6496 11.9952 19.834 11.5501 19.834 11.0859C19.834 10.6218 19.6496 10.1767 19.3214 9.8485C18.9932 9.52031 18.5481 9.33594 18.084 9.33594C17.6199 9.33594 17.1747 9.52031 16.8465 9.8485C16.5184 10.1767 16.334 10.6218 16.334 11.0859C16.334 11.5501 16.5184 11.9952 16.8465 12.3234C17.1747 12.6516 17.6199 12.8359 18.084 12.8359ZM14.0007 23.3359C11.5253 23.3359 9.15133 22.3526 7.40099 20.6023C5.65065 18.8519 4.66732 16.478 4.66732 14.0026C4.66732 11.5273 5.65065 9.15328 7.40099 7.40294C9.15133 5.6526 11.5253 4.66927 14.0007 4.66927C16.476 4.66927 18.85 5.6526 20.6003 7.40294C22.3507 9.15328 23.334 11.5273 23.334 14.0026C23.334 16.478 22.3507 18.8519 20.6003 20.6023C18.85 22.3526 16.476 23.3359 14.0007 23.3359ZM14.0007 2.33594C7.54898 2.33594 2.33398 7.58594 2.33398 14.0026C2.33398 17.0968 3.56315 20.0643 5.75107 22.2522C6.83442 23.3355 8.12055 24.1949 9.53601 24.7812C10.9515 25.3675 12.4686 25.6693 14.0007 25.6693C17.0948 25.6693 20.0623 24.4401 22.2502 22.2522C24.4382 20.0643 25.6673 17.0968 25.6673 14.0026C25.6673 12.4705 25.3656 10.9534 24.7792 9.53796C24.1929 8.1225 23.3336 6.83638 22.2502 5.75303C21.1669 4.66968 19.8808 3.81031 18.4653 3.22401C17.0498 2.6377 15.5327 2.33594 14.0007 2.33594Z" fill="#FFBB5C"/>
</svg>
