<svg width="41" height="33" viewBox="0 0 41 33" fill="none" xmlns="http://www.w3.org/2000/svg">
<path fill-rule="evenodd" clip-rule="evenodd" d="M39.2605 16.8919C40.9478 21.1585 41.0166 25.544 39.3149 28.3955C38.1804 30.2937 36.6048 31.4872 34.66 31.9374C32.8086 32.3702 30.8314 32.0778 28.9047 31.4767C26.1479 30.6181 23.0439 28.9739 19.8127 27.1007L18.0404 26.0608L14.1566 23.7443L12.514 22.7492C9.26523 20.758 6.27457 18.771 4.17466 16.7161C2.73113 15.3056 1.5371 13.7035 1.03529 11.8695C0.508324 9.94394 0.810786 7.99054 1.94479 6.09038C3.64651 3.23895 7.5369 1.21821 12.0948 0.677489C16.7696 0.123537 22.4636 1.06077 28.2331 4.50276C33.9992 7.94763 37.5294 12.516 39.2605 16.8919ZM18.3039 4.83476C16.7435 4.53555 15.1524 4.42886 13.5661 4.5171C13.079 5.49698 12.7875 6.58867 12.6967 7.78065C12.6576 8.30404 12.828 8.82153 13.1704 9.21928C13.5128 9.61704 13.9992 9.86247 14.5226 9.9016C15.046 9.94072 15.5634 9.77033 15.9611 9.4279C16.3589 9.08547 16.6043 8.59906 16.6434 8.07568C16.7462 6.68888 17.2786 5.64653 18.3058 4.83428L18.3039 4.83476ZM27.4014 8.65861C26.2862 7.91178 25.1176 7.24804 23.905 6.67276C23.5176 7.16639 23.1638 7.68825 22.8556 8.20472C22.0188 9.60954 21.3051 11.3158 21.1921 12.848C21.1525 13.3523 21.3076 13.8525 21.6255 14.246C21.9433 14.6394 22.3998 14.8961 22.9011 14.9634C23.4024 15.0307 23.9104 14.9034 24.3207 14.6077C24.731 14.3119 25.0124 13.8703 25.1072 13.3734L25.1369 13.1436C25.1857 12.4722 25.5683 11.3779 26.2527 10.234C26.5838 9.67297 26.9685 9.14538 27.4014 8.65861ZM34.394 15.911C33.7533 14.8119 32.9596 13.7045 31.9976 12.6253C30.625 14.0328 29.8419 15.8199 29.6842 17.9183C29.6611 18.1793 29.6902 18.4422 29.7696 18.6919C29.849 18.9415 29.9772 19.1729 30.1468 19.3726C30.3164 19.5723 30.5239 19.7363 30.7574 19.8552C30.9909 19.974 31.2456 20.0453 31.5069 20.0648C31.7681 20.0844 32.0306 20.0519 32.2792 19.9692C32.5278 19.8865 32.7574 19.7552 32.9548 19.583C33.1523 19.4108 33.3135 19.2011 33.4292 18.966C33.5449 18.731 33.6128 18.4753 33.6289 18.2138C33.6968 17.3112 33.9445 16.555 34.394 15.911Z" fill="#C58940"/>
</svg>
