<svg width="116" height="25" viewBox="0 0 116 25" fill="none" xmlns="http://www.w3.org/2000/svg">
<mask id="path-1-outside-1_3319_297" maskUnits="userSpaceOnUse" x="2" y="1.74219" width="105" height="23" fill="black">
<rect fill="white" x="2" y="1.74219" width="105" height="23"/>
<path d="M29.7335 18.6317V2.2551H33.605V18.6317H29.7335ZM2.32293 15.3022V2.68096H22.3001V4.46188H24.4295V2.2551H28.301V18.6317H24.4295V8.13985H22.3001V15.3022H2.32293ZM3.48439 24.2068V16.696H7.35594V20.4901H34.2632V24.2068H3.48439ZM6.19448 11.5855H18.4286V6.39765H6.19448V11.5855ZM38.1468 23.4325V19.7158H52.0844V17.3541H38.8824V2.60353H42.754V7.28811H65.0541V2.60353H68.9256V17.3541H55.9559V19.7158H69.7387V23.4325H38.1468ZM42.754 13.6374H65.0541V11.0048H42.754V13.6374ZM70.9188 20.4127C77.0746 17.9736 80.0557 13.56 81.1784 9.72718V2.68096H85.05L85.0113 9.72718C86.134 13.56 89.1151 17.9736 95.2709 20.4127L93.9545 23.7422C88.5344 21.6128 85.05 17.9736 83.1142 14.373C81.1397 17.9736 77.6553 21.6128 72.2351 23.7422L70.9188 20.4127ZM98.0971 24.2068V2.2551H101.969V3.0294H106.034V6.70737H101.969V9.72718L105.801 9.68847V13.3664L101.969 13.4052V24.2068H98.0971Z"/>
</mask>
<path d="M29.7335 18.6317V2.2551H33.605V18.6317H29.7335ZM2.32293 15.3022V2.68096H22.3001V4.46188H24.4295V2.2551H28.301V18.6317H24.4295V8.13985H22.3001V15.3022H2.32293ZM3.48439 24.2068V16.696H7.35594V20.4901H34.2632V24.2068H3.48439ZM6.19448 11.5855H18.4286V6.39765H6.19448V11.5855ZM38.1468 23.4325V19.7158H52.0844V17.3541H38.8824V2.60353H42.754V7.28811H65.0541V2.60353H68.9256V17.3541H55.9559V19.7158H69.7387V23.4325H38.1468ZM42.754 13.6374H65.0541V11.0048H42.754V13.6374ZM70.9188 20.4127C77.0746 17.9736 80.0557 13.56 81.1784 9.72718V2.68096H85.05L85.0113 9.72718C86.134 13.56 89.1151 17.9736 95.2709 20.4127L93.9545 23.7422C88.5344 21.6128 85.05 17.9736 83.1142 14.373C81.1397 17.9736 77.6553 21.6128 72.2351 23.7422L70.9188 20.4127ZM98.0971 24.2068V2.2551H101.969V3.0294H106.034V6.70737H101.969V9.72718L105.801 9.68847V13.3664L101.969 13.4052V24.2068H98.0971Z" fill="#FFE6C7"/>
<path d="M29.7335 18.6317H29.4535V18.9117H29.7335V18.6317ZM29.7335 2.2551V1.9751H29.4535V2.2551H29.7335ZM33.605 2.2551H33.885V1.9751H33.605V2.2551ZM33.605 18.6317V18.9117H33.885V18.6317H33.605ZM2.32293 15.3022H2.04293V15.5822H2.32293V15.3022ZM2.32293 2.68096V2.40096H2.04293V2.68096H2.32293ZM22.3001 2.68096H22.5801V2.40096H22.3001V2.68096ZM22.3001 4.46188H22.0201V4.74188H22.3001V4.46188ZM24.4295 4.46188V4.74188H24.7095V4.46188H24.4295ZM24.4295 2.2551V1.9751H24.1495V2.2551H24.4295ZM28.301 2.2551H28.581V1.9751H28.301V2.2551ZM28.301 18.6317V18.9117H28.581V18.6317H28.301ZM24.4295 18.6317H24.1495V18.9117H24.4295V18.6317ZM24.4295 8.13985H24.7095V7.85985H24.4295V8.13985ZM22.3001 8.13985V7.85985H22.0201V8.13985H22.3001ZM22.3001 15.3022V15.5822H22.5801V15.3022H22.3001ZM3.48439 24.2068H3.20439V24.4868H3.48439V24.2068ZM3.48439 16.696V16.416H3.20439V16.696H3.48439ZM7.35594 16.696H7.63594V16.416H7.35594V16.696ZM7.35594 20.4901H7.07594V20.7701H7.35594V20.4901ZM34.2632 20.4901H34.5432V20.2101H34.2632V20.4901ZM34.2632 24.2068V24.4868H34.5432V24.2068H34.2632ZM6.19448 11.5855H5.91448V11.8655H6.19448V11.5855ZM18.4286 11.5855V11.8655H18.7086V11.5855H18.4286ZM18.4286 6.39765H18.7086V6.11765H18.4286V6.39765ZM6.19448 6.39765V6.11765H5.91448V6.39765H6.19448ZM30.0135 18.6317V2.2551H29.4535V18.6317H30.0135ZM29.7335 2.5351H33.605V1.9751H29.7335V2.5351ZM33.325 2.2551V18.6317H33.885V2.2551H33.325ZM33.605 18.3517H29.7335V18.9117H33.605V18.3517ZM2.60293 15.3022V2.68096H2.04293V15.3022H2.60293ZM2.32293 2.96096H22.3001V2.40096H2.32293V2.96096ZM22.0201 2.68096V4.46188H22.5801V2.68096H22.0201ZM22.3001 4.74188H24.4295V4.18188H22.3001V4.74188ZM24.7095 4.46188V2.2551H24.1495V4.46188H24.7095ZM24.4295 2.5351H28.301V1.9751H24.4295V2.5351ZM28.021 2.2551V18.6317H28.581V2.2551H28.021ZM28.301 18.3517H24.4295V18.9117H28.301V18.3517ZM24.7095 18.6317V8.13985H24.1495V18.6317H24.7095ZM24.4295 7.85985H22.3001V8.41985H24.4295V7.85985ZM22.0201 8.13985V15.3022H22.5801V8.13985H22.0201ZM22.3001 15.0222H2.32293V15.5822H22.3001V15.0222ZM3.76439 24.2068V16.696H3.20439V24.2068H3.76439ZM3.48439 16.976H7.35594V16.416H3.48439V16.976ZM7.07594 16.696V20.4901H7.63594V16.696H7.07594ZM7.35594 20.7701H34.2632V20.2101H7.35594V20.7701ZM33.9832 20.4901V24.2068H34.5432V20.4901H33.9832ZM34.2632 23.9268H3.48439V24.4868H34.2632V23.9268ZM6.19448 11.8655H18.4286V11.3055H6.19448V11.8655ZM18.7086 11.5855V6.39765H18.1486V11.5855H18.7086ZM18.4286 6.11765H6.19448V6.67765H18.4286V6.11765ZM5.91448 6.39765V11.5855H6.47448V6.39765H5.91448ZM38.1468 23.4325H37.8668V23.7125H38.1468V23.4325ZM38.1468 19.7158V19.4358H37.8668V19.7158H38.1468ZM52.0844 19.7158V19.9958H52.3644V19.7158H52.0844ZM52.0844 17.3541H52.3644V17.0741H52.0844V17.3541ZM38.8824 17.3541H38.6024V17.6341H38.8824V17.3541ZM38.8824 2.60353V2.32353H38.6024V2.60353H38.8824ZM42.754 2.60353H43.034V2.32353H42.754V2.60353ZM42.754 7.28811H42.474V7.56811H42.754V7.28811ZM65.0541 7.28811V7.56811H65.3341V7.28811H65.0541ZM65.0541 2.60353V2.32353H64.7741V2.60353H65.0541ZM68.9256 2.60353H69.2056V2.32353H68.9256V2.60353ZM68.9256 17.3541V17.6341H69.2056V17.3541H68.9256ZM55.9559 17.3541V17.0741H55.6759V17.3541H55.9559ZM55.9559 19.7158H55.6759V19.9958H55.9559V19.7158ZM69.7387 19.7158H70.0187V19.4358H69.7387V19.7158ZM69.7387 23.4325V23.7125H70.0187V23.4325H69.7387ZM42.754 13.6374H42.474V13.9174H42.754V13.6374ZM65.0541 13.6374V13.9174H65.3341V13.6374H65.0541ZM65.0541 11.0048H65.3341V10.7248H65.0541V11.0048ZM42.754 11.0048V10.7248H42.474V11.0048H42.754ZM38.4268 23.4325V19.7158H37.8668V23.4325H38.4268ZM38.1468 19.9958H52.0844V19.4358H38.1468V19.9958ZM52.3644 19.7158V17.3541H51.8044V19.7158H52.3644ZM52.0844 17.0741H38.8824V17.6341H52.0844V17.0741ZM39.1624 17.3541V2.60353H38.6024V17.3541H39.1624ZM38.8824 2.88353H42.754V2.32353H38.8824V2.88353ZM42.474 2.60353V7.28811H43.034V2.60353H42.474ZM42.754 7.56811H65.0541V7.00811H42.754V7.56811ZM65.3341 7.28811V2.60353H64.7741V7.28811H65.3341ZM65.0541 2.88353H68.9256V2.32353H65.0541V2.88353ZM68.6456 2.60353V17.3541H69.2056V2.60353H68.6456ZM68.9256 17.0741H55.9559V17.6341H68.9256V17.0741ZM55.6759 17.3541V19.7158H56.2359V17.3541H55.6759ZM55.9559 19.9958H69.7387V19.4358H55.9559V19.9958ZM69.4587 19.7158V23.4325H70.0187V19.7158H69.4587ZM69.7387 23.1525H38.1468V23.7125H69.7387V23.1525ZM42.754 13.9174H65.0541V13.3574H42.754V13.9174ZM65.3341 13.6374V11.0048H64.7741V13.6374H65.3341ZM65.0541 10.7248H42.754V11.2848H65.0541V10.7248ZM42.474 11.0048V13.6374H43.034V11.0048H42.474ZM70.9188 20.4127L70.8157 20.1523L70.5556 20.2554L70.6584 20.5156L70.9188 20.4127ZM81.1784 9.72718L81.4471 9.8059L81.4584 9.76735V9.72718H81.1784ZM81.1784 2.68096V2.40096H80.8984V2.68096H81.1784ZM85.05 2.68096L85.33 2.6825L85.3315 2.40096H85.05V2.68096ZM85.0113 9.72718L84.7313 9.72564L84.731 9.7666L84.7425 9.8059L85.0113 9.72718ZM95.2709 20.4127L95.5312 20.5156L95.6341 20.2554L95.374 20.1523L95.2709 20.4127ZM93.9545 23.7422L93.8521 24.0028L94.1122 24.105L94.2149 23.8451L93.9545 23.7422ZM83.1142 14.373L83.3608 14.2405L83.1166 13.7863L82.8687 14.2384L83.1142 14.373ZM72.2351 23.7422L71.9748 23.8451L72.0775 24.105L72.3375 24.0028L72.2351 23.7422ZM98.0971 24.2068H97.8171V24.4868H98.0971V24.2068ZM98.0971 2.2551V1.9751H97.8171V2.2551H98.0971ZM101.969 2.2551H102.249V1.9751H101.969V2.2551ZM101.969 3.0294H101.689V3.3094H101.969V3.0294ZM106.034 3.0294H106.314V2.7494H106.034V3.0294ZM106.034 6.70737V6.98737H106.314V6.70737H106.034ZM101.969 6.70737V6.42737H101.689V6.70737H101.969ZM101.969 9.72718H101.689V10.01L101.971 10.0072L101.969 9.72718ZM105.801 9.68847H106.081V9.40563L105.799 9.40848L105.801 9.68847ZM105.801 13.3664L105.804 13.6464L106.081 13.6436V13.3664H105.801ZM101.969 13.4052L101.966 13.1252L101.689 13.128V13.4052H101.969ZM101.969 24.2068V24.4868H102.249V24.2068H101.969ZM71.022 20.673C77.2653 18.1992 80.3024 13.7137 81.4471 9.8059L80.9097 9.64847C79.8089 13.4064 76.8839 17.748 70.8157 20.1523L71.022 20.673ZM81.4584 9.72718V2.68096H80.8984V9.72718H81.4584ZM81.1784 2.96096H85.05V2.40096H81.1784V2.96096ZM84.77 2.67943L84.7313 9.72564L85.2913 9.72872L85.33 2.6825L84.77 2.67943ZM84.7425 9.8059C85.8873 13.7137 88.9244 18.1992 95.1677 20.673L95.374 20.1523C89.3058 17.748 86.3808 13.4064 85.28 9.64847L84.7425 9.8059ZM95.0105 20.3097L93.6941 23.6392L94.2149 23.8451L95.5312 20.5156L95.0105 20.3097ZM94.0569 23.4816C88.7026 21.3781 85.2674 17.7866 83.3608 14.2405L82.8676 14.5056C84.8326 18.1605 88.3661 21.8476 93.8521 24.0028L94.0569 23.4816ZM82.8687 14.2384C80.9229 17.7865 77.4868 21.3782 72.1328 23.4816L72.3375 24.0028C77.8238 21.8475 81.3565 18.1606 83.3597 14.5077L82.8687 14.2384ZM72.4955 23.6392L71.1792 20.3097L70.6584 20.5156L71.9748 23.8451L72.4955 23.6392ZM98.3771 24.2068V2.2551H97.8171V24.2068H98.3771ZM98.0971 2.5351H101.969V1.9751H98.0971V2.5351ZM101.689 2.2551V3.0294H102.249V2.2551H101.689ZM101.969 3.3094H106.034V2.7494H101.969V3.3094ZM105.754 3.0294V6.70737H106.314V3.0294H105.754ZM106.034 6.42737H101.969V6.98737H106.034V6.42737ZM101.689 6.70737V9.72718H102.249V6.70737H101.689ZM101.971 10.0072L105.804 9.96845L105.799 9.40848L101.966 9.4472L101.971 10.0072ZM105.521 9.68847V13.3664H106.081V9.68847H105.521ZM105.799 13.0865L101.966 13.1252L101.971 13.6851L105.804 13.6464L105.799 13.0865ZM101.689 13.4052V24.2068H102.249V13.4052H101.689ZM101.969 23.9268H98.0971V24.4868H101.969V23.9268Z" fill="#FF6000" mask="url(#path-1-outside-1_3319_297)"/>
<mask id="path-3-outside-2_3319_297" maskUnits="userSpaceOnUse" x="2" y="0" width="105" height="23" fill="black">
<rect fill="white" x="2" width="105" height="23"/>
<path d="M29.7335 16.8896V0.512908H33.605V16.8896H29.7335ZM2.32293 13.56V0.938777H22.3001V2.71969H24.4295V0.512908H28.301V16.8896H24.4295V6.39766H22.3001V13.56H2.32293ZM3.48439 22.4646V14.9538H7.35594V18.7479H34.2632V22.4646H3.48439ZM6.19448 9.84334H18.4286V4.65546H6.19448V9.84334ZM38.1468 21.6903V17.9736H52.0844V15.6119H38.8824V0.861347H42.754V5.54592H65.0541V0.861347H68.9256V15.6119H55.9559V17.9736H69.7387V21.6903H38.1468ZM42.754 11.8953H65.0541V9.26261H42.754V11.8953ZM70.9188 18.6705C77.0746 16.2314 80.0557 11.8178 81.1784 7.985V0.938777H85.05L85.0113 7.985C86.134 11.8178 89.1151 16.2314 95.2709 18.6705L93.9545 22C88.5344 19.8706 85.05 16.2314 83.1142 12.6309C81.1397 16.2314 77.6553 19.8706 72.2351 22L70.9188 18.6705ZM98.0971 22.4646V0.512908H101.969V1.28722H106.034V4.96519H101.969V7.985L105.801 7.94628V11.6243L101.969 11.663V22.4646H98.0971Z"/>
</mask>
<path d="M29.7335 16.8896V0.512908H33.605V16.8896H29.7335ZM2.32293 13.56V0.938777H22.3001V2.71969H24.4295V0.512908H28.301V16.8896H24.4295V6.39766H22.3001V13.56H2.32293ZM3.48439 22.4646V14.9538H7.35594V18.7479H34.2632V22.4646H3.48439ZM6.19448 9.84334H18.4286V4.65546H6.19448V9.84334ZM38.1468 21.6903V17.9736H52.0844V15.6119H38.8824V0.861347H42.754V5.54592H65.0541V0.861347H68.9256V15.6119H55.9559V17.9736H69.7387V21.6903H38.1468ZM42.754 11.8953H65.0541V9.26261H42.754V11.8953ZM70.9188 18.6705C77.0746 16.2314 80.0557 11.8178 81.1784 7.985V0.938777H85.05L85.0113 7.985C86.134 11.8178 89.1151 16.2314 95.2709 18.6705L93.9545 22C88.5344 19.8706 85.05 16.2314 83.1142 12.6309C81.1397 16.2314 77.6553 19.8706 72.2351 22L70.9188 18.6705ZM98.0971 22.4646V0.512908H101.969V1.28722H106.034V4.96519H101.969V7.985L105.801 7.94628V11.6243L101.969 11.663V22.4646H98.0971Z" fill="#FF6000"/>
<path d="M29.7335 16.8896H29.4535V17.1696H29.7335V16.8896ZM29.7335 0.512908V0.232908H29.4535V0.512908H29.7335ZM33.605 0.512908H33.885V0.232908H33.605V0.512908ZM33.605 16.8896V17.1696H33.885V16.8896H33.605ZM2.32293 13.56H2.04293V13.84H2.32293V13.56ZM2.32293 0.938777V0.658777H2.04293V0.938777H2.32293ZM22.3001 0.938777H22.5801V0.658777H22.3001V0.938777ZM22.3001 2.71969H22.0201V2.99969H22.3001V2.71969ZM24.4295 2.71969V2.99969H24.7095V2.71969H24.4295ZM24.4295 0.512908V0.232908H24.1495V0.512908H24.4295ZM28.301 0.512908H28.581V0.232908H28.301V0.512908ZM28.301 16.8896V17.1696H28.581V16.8896H28.301ZM24.4295 16.8896H24.1495V17.1696H24.4295V16.8896ZM24.4295 6.39766H24.7095V6.11766H24.4295V6.39766ZM22.3001 6.39766V6.11766H22.0201V6.39766H22.3001ZM22.3001 13.56V13.84H22.5801V13.56H22.3001ZM3.48439 22.4646H3.20439V22.7446H3.48439V22.4646ZM3.48439 14.9538V14.6738H3.20439V14.9538H3.48439ZM7.35594 14.9538H7.63594V14.6738H7.35594V14.9538ZM7.35594 18.7479H7.07594V19.0279H7.35594V18.7479ZM34.2632 18.7479H34.5432V18.4679H34.2632V18.7479ZM34.2632 22.4646V22.7446H34.5432V22.4646H34.2632ZM6.19448 9.84334H5.91448V10.1233H6.19448V9.84334ZM18.4286 9.84334V10.1233H18.7086V9.84334H18.4286ZM18.4286 4.65546H18.7086V4.37546H18.4286V4.65546ZM6.19448 4.65546V4.37546H5.91448V4.65546H6.19448ZM30.0135 16.8896V0.512908H29.4535V16.8896H30.0135ZM29.7335 0.792908H33.605V0.232908H29.7335V0.792908ZM33.325 0.512908V16.8896H33.885V0.512908H33.325ZM33.605 16.6096H29.7335V17.1696H33.605V16.6096ZM2.60293 13.56V0.938777H2.04293V13.56H2.60293ZM2.32293 1.21878H22.3001V0.658777H2.32293V1.21878ZM22.0201 0.938777V2.71969H22.5801V0.938777H22.0201ZM22.3001 2.99969H24.4295V2.43969H22.3001V2.99969ZM24.7095 2.71969V0.512908H24.1495V2.71969H24.7095ZM24.4295 0.792908H28.301V0.232908H24.4295V0.792908ZM28.021 0.512908V16.8896H28.581V0.512908H28.021ZM28.301 16.6096H24.4295V17.1696H28.301V16.6096ZM24.7095 16.8896V6.39766H24.1495V16.8896H24.7095ZM24.4295 6.11766H22.3001V6.67766H24.4295V6.11766ZM22.0201 6.39766V13.56H22.5801V6.39766H22.0201ZM22.3001 13.28H2.32293V13.84H22.3001V13.28ZM3.76439 22.4646V14.9538H3.20439V22.4646H3.76439ZM3.48439 15.2338H7.35594V14.6738H3.48439V15.2338ZM7.07594 14.9538V18.7479H7.63594V14.9538H7.07594ZM7.35594 19.0279H34.2632V18.4679H7.35594V19.0279ZM33.9832 18.7479V22.4646H34.5432V18.7479H33.9832ZM34.2632 22.1846H3.48439V22.7446H34.2632V22.1846ZM6.19448 10.1233H18.4286V9.56334H6.19448V10.1233ZM18.7086 9.84334V4.65546H18.1486V9.84334H18.7086ZM18.4286 4.37546H6.19448V4.93546H18.4286V4.37546ZM5.91448 4.65546V9.84334H6.47448V4.65546H5.91448ZM38.1468 21.6903H37.8668V21.9703H38.1468V21.6903ZM38.1468 17.9736V17.6936H37.8668V17.9736H38.1468ZM52.0844 17.9736V18.2536H52.3644V17.9736H52.0844ZM52.0844 15.6119H52.3644V15.3319H52.0844V15.6119ZM38.8824 15.6119H38.6024V15.8919H38.8824V15.6119ZM38.8824 0.861347V0.581347H38.6024V0.861347H38.8824ZM42.754 0.861347H43.034V0.581347H42.754V0.861347ZM42.754 5.54592H42.474V5.82592H42.754V5.54592ZM65.0541 5.54592V5.82592H65.3341V5.54592H65.0541ZM65.0541 0.861347V0.581347H64.7741V0.861347H65.0541ZM68.9256 0.861347H69.2056V0.581347H68.9256V0.861347ZM68.9256 15.6119V15.8919H69.2056V15.6119H68.9256ZM55.9559 15.6119V15.3319H55.6759V15.6119H55.9559ZM55.9559 17.9736H55.6759V18.2536H55.9559V17.9736ZM69.7387 17.9736H70.0187V17.6936H69.7387V17.9736ZM69.7387 21.6903V21.9703H70.0187V21.6903H69.7387ZM42.754 11.8953H42.474V12.1753H42.754V11.8953ZM65.0541 11.8953V12.1753H65.3341V11.8953H65.0541ZM65.0541 9.26261H65.3341V8.98261H65.0541V9.26261ZM42.754 9.26261V8.98261H42.474V9.26261H42.754ZM38.4268 21.6903V17.9736H37.8668V21.6903H38.4268ZM38.1468 18.2536H52.0844V17.6936H38.1468V18.2536ZM52.3644 17.9736V15.6119H51.8044V17.9736H52.3644ZM52.0844 15.3319H38.8824V15.8919H52.0844V15.3319ZM39.1624 15.6119V0.861347H38.6024V15.6119H39.1624ZM38.8824 1.14135H42.754V0.581347H38.8824V1.14135ZM42.474 0.861347V5.54592H43.034V0.861347H42.474ZM42.754 5.82592H65.0541V5.26592H42.754V5.82592ZM65.3341 5.54592V0.861347H64.7741V5.54592H65.3341ZM65.0541 1.14135H68.9256V0.581347H65.0541V1.14135ZM68.6456 0.861347V15.6119H69.2056V0.861347H68.6456ZM68.9256 15.3319H55.9559V15.8919H68.9256V15.3319ZM55.6759 15.6119V17.9736H56.2359V15.6119H55.6759ZM55.9559 18.2536H69.7387V17.6936H55.9559V18.2536ZM69.4587 17.9736V21.6903H70.0187V17.9736H69.4587ZM69.7387 21.4103H38.1468V21.9703H69.7387V21.4103ZM42.754 12.1753H65.0541V11.6153H42.754V12.1753ZM65.3341 11.8953V9.26261H64.7741V11.8953H65.3341ZM65.0541 8.98261H42.754V9.54261H65.0541V8.98261ZM42.474 9.26261V11.8953H43.034V9.26261H42.474ZM70.9188 18.6705L70.8157 18.4102L70.5556 18.5132L70.6584 18.7734L70.9188 18.6705ZM81.1784 7.985L81.4471 8.06371L81.4584 8.02516V7.985H81.1784ZM81.1784 0.938777V0.658777H80.8984V0.938777H81.1784ZM85.05 0.938777L85.33 0.940316L85.3315 0.658777H85.05V0.938777ZM85.0113 7.985L84.7313 7.98346L84.731 8.02441L84.7425 8.06371L85.0113 7.985ZM95.2709 18.6705L95.5312 18.7734L95.6341 18.5132L95.374 18.4102L95.2709 18.6705ZM93.9545 22L93.8521 22.2606L94.1122 22.3628L94.2149 22.1029L93.9545 22ZM83.1142 12.6309L83.3608 12.4983L83.1166 12.0441L82.8687 12.4962L83.1142 12.6309ZM72.2351 22L71.9748 22.1029L72.0775 22.3628L72.3375 22.2606L72.2351 22ZM98.0971 22.4646H97.8171V22.7446H98.0971V22.4646ZM98.0971 0.512908V0.232908H97.8171V0.512908H98.0971ZM101.969 0.512908H102.249V0.232908H101.969V0.512908ZM101.969 1.28722H101.689V1.56722H101.969V1.28722ZM106.034 1.28722H106.314V1.00722H106.034V1.28722ZM106.034 4.96519V5.24519H106.314V4.96519H106.034ZM101.969 4.96519V4.68519H101.689V4.96519H101.969ZM101.969 7.985H101.689V8.26784L101.971 8.26498L101.969 7.985ZM105.801 7.94628H106.081V7.66344L105.799 7.66629L105.801 7.94628ZM105.801 11.6243L105.804 11.9042L106.081 11.9014V11.6243H105.801ZM101.969 11.663L101.966 11.383L101.689 11.3858V11.663H101.969ZM101.969 22.4646V22.7446H102.249V22.4646H101.969ZM71.022 18.9308C77.2653 16.457 80.3024 11.9715 81.4471 8.06371L80.9097 7.90628C79.8089 11.6642 76.8839 16.0058 70.8157 18.4102L71.022 18.9308ZM81.4584 7.985V0.938777H80.8984V7.985H81.4584ZM81.1784 1.21878H85.05V0.658777H81.1784V1.21878ZM84.77 0.937239L84.7313 7.98346L85.2913 7.98653L85.33 0.940316L84.77 0.937239ZM84.7425 8.06371C85.8873 11.9715 88.9244 16.457 95.1677 18.9308L95.374 18.4102C89.3058 16.0058 86.3808 11.6642 85.28 7.90628L84.7425 8.06371ZM95.0105 18.5675L93.6941 21.8971L94.2149 22.1029L95.5312 18.7734L95.0105 18.5675ZM94.0569 21.7394C88.7026 19.6359 85.2674 16.0444 83.3608 12.4983L82.8676 12.7634C84.8326 16.4183 88.3661 20.1054 93.8521 22.2606L94.0569 21.7394ZM82.8687 12.4962C80.9229 16.0443 77.4868 19.636 72.1328 21.7394L72.3375 22.2606C77.8238 20.1053 81.3565 16.4184 83.3597 12.7655L82.8687 12.4962ZM72.4955 21.8971L71.1792 18.5675L70.6584 18.7734L71.9748 22.1029L72.4955 21.8971ZM98.3771 22.4646V0.512908H97.8171V22.4646H98.3771ZM98.0971 0.792908H101.969V0.232908H98.0971V0.792908ZM101.689 0.512908V1.28722H102.249V0.512908H101.689ZM101.969 1.56722H106.034V1.00722H101.969V1.56722ZM105.754 1.28722V4.96519H106.314V1.28722H105.754ZM106.034 4.68519H101.969V5.24519H106.034V4.68519ZM101.689 4.96519V7.985H102.249V4.96519H101.689ZM101.971 8.26498L105.804 8.22627L105.799 7.66629L101.966 7.70501L101.971 8.26498ZM105.521 7.94628V11.6243H106.081V7.94628H105.521ZM105.799 11.3443L101.966 11.383L101.971 11.943L105.804 11.9042L105.799 11.3443ZM101.689 11.663V22.4646H102.249V11.663H101.689ZM101.969 22.1846H98.0971V22.7446H101.969V22.1846Z" fill="#FF6000" mask="url(#path-3-outside-2_3319_297)"/>
</svg>
