<?xml version="1.0" standalone="no"?>
<!DOCTYPE svg PUBLIC "-//W3C//DTD SVG 20010904//EN"
 "http://www.w3.org/TR/2001/REC-SVG-20010904/DTD/svg10.dtd">
<svg version="1.0" xmlns="http://www.w3.org/2000/svg"
 width="954.000000pt" height="743.000000pt" viewBox="0 0 954.000000 743.000000"
 preserveAspectRatio="xMidYMid meet">

<g transform="translate(0.000000,743.000000) scale(0.100000,-0.100000)"
fill="#000000" stroke="none">
<path d="M10 3715 l0 -3705 4760 0 4760 0 0 3705 0 3705 -4760 0 -4760 0 0
-3705z m5088 2028 c-3 -26 -8 -29 -70 -40 -76 -14 -113 -34 -133 -73 -8 -15
-59 -245 -115 -511 l-101 -484 -77 -142 c-42 -78 -78 -137 -80 -130 -1 7 38
237 87 512 50 275 89 501 88 502 -2 1 -217 -388 -479 -865 l-477 -867 -294 0
-294 0 7 25 c6 22 14 25 87 36 155 22 119 -27 510 679 189 341 436 790 550
997 l208 378 220 3 c121 1 253 3 293 5 l73 2 -3 -27z m1288 11 c-3 -9 -6 -22
-6 -29 0 -8 -19 -16 -52 -20 -122 -16 -203 -85 -289 -246 -43 -81 -208 -371
-456 -806 l-25 -43 271 0 c149 0 271 -3 271 -6 0 -3 -14 -33 -31 -65 l-32 -59
-206 -1 c-113 -1 -239 -4 -280 -8 l-74 -6 -221 -402 c-122 -221 -225 -405
-229 -410 -10 -9 -587 -13 -587 -4 1 39 13 48 73 54 83 8 149 32 179 65 22 24
322 560 856 1532 101 184 199 363 218 397 l35 63 222 3 c122 1 255 3 296 5 63
2 72 0 67 -14z m-4178 -3268 l27 -26 0 -310 0 -310 -28 -27 c-24 -25 -35 -28
-93 -28 -60 0 -68 3 -90 28 l-24 28 0 307 c0 266 2 311 16 330 23 33 51 42
112 39 42 -3 59 -10 80 -31z m4222 19 c42 -22 50 -43 50 -139 0 -85 0 -86 -30
-101 -16 -8 -31 -15 -35 -15 -3 0 -5 38 -5 84 0 85 -12 116 -44 116 -33 0 -36
-22 -36 -300 0 -278 3 -300 36 -300 34 0 44 30 44 137 0 92 -2 107 -20 121
-10 10 -22 29 -26 45 -6 27 -6 27 43 27 27 0 54 -5 61 -12 15 -15 17 -310 2
-339 -30 -55 -144 -65 -187 -14 -23 26 -23 28 -23 333 0 266 2 311 16 330 29
42 101 55 154 27z m-5023 -7 c6 -7 27 -96 48 -198 20 -102 40 -188 44 -192 4
-4 24 80 45 186 21 107 43 199 49 205 6 6 24 11 39 11 l28 0 0 -360 0 -360
-35 0 -35 0 -1 173 c0 94 -3 165 -6 157 -4 -8 -16 -58 -27 -110 -18 -80 -25
-95 -42 -98 -33 -5 -56 32 -80 130 l-22 93 -1 -172 -1 -173 -35 0 -35 0 0 360
0 360 29 0 c16 0 33 -6 38 -12z m2634 -17 l29 -29 0 -151 c0 -89 -4 -152 -10
-156 -7 -4 -7 -12 0 -25 5 -10 10 -89 10 -174 l0 -156 -34 0 -35 0 -3 145 c-3
155 -6 165 -55 165 -23 0 -23 -1 -23 -155 l0 -155 -35 0 -35 0 0 360 0 360 81
0 c76 0 82 -2 110 -29z m483 16 c13 -10 29 -63 56 -193 l38 -179 1 193 1 192
35 0 35 0 0 -360 0 -360 -31 0 c-38 0 -45 16 -90 220 l-34 155 -3 -187 -2
-188 -35 0 -35 0 0 360 0 360 23 0 c13 0 31 -6 41 -13z m1280 -3 c9 -8 16 -20
16 -25 0 -6 22 -157 50 -337 27 -180 50 -330 50 -334 0 -5 -18 -8 -40 -8 -33
0 -40 4 -45 23 -5 22 -54 400 -56 427 -2 34 -10 -15 -34 -205 -34 -265 -27
-245 -75 -245 -22 0 -40 3 -40 7 0 13 102 688 105 701 6 17 51 15 69 -4z
m1150 10 c14 -5 16 -47 16 -360 l0 -354 -35 0 -35 0 0 360 c0 348 1 360 19
360 11 0 26 -3 35 -6z m524 -321 l2 -323 80 0 c86 0 94 -6 64 -48 -14 -20 -23
-22 -115 -22 l-99 0 0 361 0 360 33 -3 32 -3 3 -322z m-4653 292 l25 -24 0
-306 0 -306 -25 -24 c-22 -23 -32 -25 -115 -25 l-90 0 0 355 0 355 90 0 c83 0
93 -2 115 -25z m638 -7 c-16 -29 -26 -34 -68 -38 l-50 -5 -3 -112 -3 -113 56
0 55 0 -13 -32 c-11 -28 -20 -34 -53 -38 l-39 -5 -3 -132 -3 -133 76 0 c41 0
75 -2 75 -5 0 -4 -7 -19 -15 -35 l-16 -30 -94 0 -95 0 0 355 0 355 106 0 106
0 -19 -32z m4710 0 c-16 -29 -26 -34 -68 -38 l-50 -5 -3 -112 -3 -113 56 0 55
0 -13 -32 c-11 -28 -20 -34 -53 -38 l-39 -5 -3 -132 -3 -133 76 0 c41 0 75 -2
75 -5 0 -4 -7 -19 -15 -35 l-16 -30 -94 0 -95 0 0 355 0 355 106 0 106 0 -19
-32z"/>
<path d="M2086 2434 c-24 -23 -24 -545 0 -568 18 -19 45 -21 62 -4 17 17 17
559 0 576 -17 17 -44 15 -62 -4z"/>
<path d="M3920 2305 l0 -135 30 0 c41 0 50 23 50 135 0 112 -9 135 -50 135
l-30 0 0 -135z"/>
<path d="M2690 2145 l0 -285 26 0 c14 0 34 5 45 10 18 10 19 24 19 273 0 191
-3 266 -12 275 -7 7 -27 12 -45 12 l-33 0 0 -285z"/>
</g>
</svg>
