<svg width="40" height="40" viewBox="0 0 40 40" fill="none" xmlns="http://www.w3.org/2000/svg">
<path d="M2 33.5C2 31.1131 2.94821 28.8239 4.63604 27.136C6.32387 25.4482 8.61305 24.5 11 24.5H29C31.3869 24.5 33.6761 25.4482 35.364 27.136C37.0518 28.8239 38 31.1131 38 33.5C38 34.6935 37.5259 35.8381 36.682 36.682C35.8381 37.5259 34.6935 38 33.5 38H6.5C5.30653 38 4.16193 37.5259 3.31802 36.682C2.47411 35.8381 2 34.6935 2 33.5Z" stroke="#190300" stroke-width="4" stroke-linejoin="round"/>
<path d="M20 15.5C23.7279 15.5 26.75 12.4779 26.75 8.75C26.75 5.02208 23.7279 2 20 2C16.2721 2 13.25 5.02208 13.25 8.75C13.25 12.4779 16.2721 15.5 20 15.5Z" stroke="#190300" stroke-width="4"/>
</svg>
