<svg width="32" height="32" viewBox="0 0 32 32" fill="none" xmlns="http://www.w3.org/2000/svg">
<path d="M2 26.1172C2 24.2607 2.7375 22.4802 4.05025 21.1674C5.36301 19.8547 7.14348 19.1172 9 19.1172H23C24.8565 19.1172 26.637 19.8547 27.9497 21.1674C29.2625 22.4802 30 24.2607 30 26.1172C30 27.0454 29.6312 27.9357 28.9749 28.5921C28.3185 29.2484 27.4283 29.6172 26.5 29.6172H5.5C4.57174 29.6172 3.6815 29.2484 3.02513 28.5921C2.36875 27.9357 2 27.0454 2 26.1172Z" stroke="#C58940" stroke-width="3" stroke-linejoin="round"/>
<path d="M16 12.1172C18.8995 12.1172 21.25 9.76668 21.25 6.86719C21.25 3.96769 18.8995 1.61719 16 1.61719C13.1005 1.61719 10.75 3.96769 10.75 6.86719C10.75 9.76668 13.1005 12.1172 16 12.1172Z" stroke="#C58940" stroke-width="3"/>
</svg>
