<svg width="32" height="32" viewBox="0 0 32 32" fill="none" xmlns="http://www.w3.org/2000/svg">
<path d="M2 15.6172C2 11.9042 3.475 8.3432 6.10051 5.71769C8.72601 3.09218 12.287 1.61719 16 1.61719C19.713 1.61719 23.274 3.09218 25.8995 5.71769C28.525 8.3432 30 11.9042 30 15.6172V24.5247C30 26.0087 30 26.7472 29.7795 27.3404C29.6042 27.8105 29.3298 28.2374 28.975 28.5922C28.6203 28.947 28.1933 29.2214 27.7232 29.3967C27.13 29.6172 26.3898 29.6172 24.9075 29.6172H16C12.287 29.6172 8.72601 28.1422 6.10051 25.5167C3.475 22.8912 2 19.3302 2 15.6172Z" stroke="#C58940" stroke-width="3"/>
<path d="M10.75 13.8672H21.25M16 20.8672H21.25" stroke="#C58940" stroke-width="3" stroke-linecap="round" stroke-linejoin="round"/>
</svg>
